<svg width="39" height="39" fill="none" xmlns="http://www.w3.org/2000/svg"><g clip-path="url(#a)"><path d="M19.504 9.5a9.982 9.982 0 00-9.997 10 9.982 9.982 0 009.997 9.999 9.982 9.982 0 009.997-9.999c0-5.535-4.463-10-9.997-10zm0 16.5c-3.576 0-6.499-2.915-6.499-6.5s2.915-6.5 6.5-6.5c3.584 0 6.499 2.915 6.499 6.5s-2.924 6.5-6.5 6.5zM32.242 9.093a2.327 2.327 0 01-2.332 2.332 2.326 2.326 0 01-2.332-2.332 2.332 2.332 0 114.664 0zm6.62 2.367c-.147-3.124-.86-5.892-3.148-8.172-2.28-2.28-5.047-2.993-8.17-3.15-3.22-.183-12.868-.183-16.088 0C8.342.285 5.575 1 3.286 3.28.999 5.559.295 8.326.138 11.45c-.183 3.22-.183 12.871 0 16.091.148 3.124.861 5.892 3.15 8.172 2.288 2.28 5.046 2.993 8.17 3.15 3.219.183 12.867.183 16.087 0 3.123-.148 5.89-.862 8.17-3.15 2.279-2.28 2.992-5.048 3.149-8.172.183-3.22.183-12.862 0-16.082zm-4.158 19.537a6.581 6.581 0 01-3.706 3.707c-2.567 1.018-8.657.783-11.494.783-2.836 0-8.935.227-11.493-.783a6.58 6.58 0 01-3.706-3.707c-1.018-2.567-.783-8.659-.783-11.496 0-2.837-.227-8.937.783-11.496A6.58 6.58 0 018.01 4.297c2.567-1.018 8.657-.783 11.493-.783 2.837 0 8.936-.227 11.494.783a6.58 6.58 0 013.706 3.707c1.018 2.567.783 8.659.783 11.496 0 2.837.235 8.937-.783 11.496z" fill="#000"/></g><defs><clipPath id="a"><path fill="#fff" d="M0 0H39V39H0z"/></clipPath></defs></svg>