<svg width="211" height="90" fill="none" xmlns="http://www.w3.org/2000/svg"><path fill-rule="evenodd" clip-rule="evenodd" d="M8.585 51.867c-5.5-11-13.7-36.6-2.5-51 4.667 7.333 19.4 21.5 41 19.5l26.5-1v-3l3.5-1.5v-1.5l-2.5-2 .5-3.5 6-.5 2 2.5-.5 2-2 .5v2.5l3.5 1 1 3.5h4v-3.5l3.5-1.5.5-3h-2.5l-1-2 2-3h5.5l2 3-.5 1.5-2.5 1v1.5l3.5 1.5.5 4h5l-.5-4.5 3.5-1v-2.5l-2-1-1-2 2-2h5.5l1.5 2-.5 2-1.5 1v2l3 .5.5 4.5 39.5-.5 8 .5 6 1.5 4.5 2.5 22.5-1 7-3.5c.333-1.333 1.5-3.6 3.5-2s2.833 5.667 3 7.5c.167 3 .2 9.1-1 9.5-1.2.4-2.167.5-2.5.5l-2-1.5-7.5-2.5-15.5.5c2.5 5 6.8 16.5 4 22.5-.833 4.833-5.6 14.7-18 15.5l-27 2.5-4.5 5-4 2-11.5.5v4l1.5 1.5-.5 2c-2.667 1.167-8.9 2.9-12.5.5-.5-.667-1.2-2.2 0-3 1.2-.8.5-5.667 0-8h-4v8l1.5.5v2.5c-2.167 1.5-7.8 3.9-13 1.5l-1-3 1.5-1-.5-8h-4.5l.5 8.5 1.5.5v3c-3.167 1.5-10.3 3.7-13.5.5l-.5-2 1-1v-5.5l-21 .5c-2.167-.167-6.8-1.6-8-6l-11-.5c-2.334 0-8.2-2.8-13-14-4.8-11.2 3-21.667 7.5-25.5-4.167-.833-14 .8-20 14-.5 1.5-1.9 4.5-3.5 4.5zm108.5-19l1.5 23.5h9c6.4-2 11 3.833 12.5 7l27-3c19.2-7.378 10.333-23.074 3.5-30l-53.5 2.5zm-14.5 20l4.5-.5-1.5-19.5h-4l1 20zm-11 1l-5 .5-1-21h4.5l1.5 20.5zm-24.5 5l9.5-1-1.5-23h-10l2 24zm-9 .5c-4.8-1.6-9 4-10.5 7-4 1.6-10.334-2.333-13-4.5-6.834-11.226-2.708-16.258 1.679-21.608l.32-.392c3.6-4.4 18.167-5.167 25-5l1 24-4.5.5zm-4.5 7l3-1.5 19.5-1 .5 1.5-23 1zm39 3.5h-4.5v-3h4.5v3zm-.5-8v-3h-4.5v3h4.5zm11-4h4.5l.5 3h-5v-3zm.5 11l.5-3h3.5v3h-4zm15.5-6v1.5h.5l13-1-1-1-12.5.5z" fill="#FFC67D" stroke="#000"/></svg>