<svg width="113" height="65" fill="none" xmlns="http://www.w3.org/2000/svg"><path fill-rule="evenodd" clip-rule="evenodd" d="M104.116 49.542c-.2 0-.798-.597-.997-1.99C90.048 36.408 79.208 33.888 75.422 34.02l-3.985-.199-7.771-.199.597 4.378c2.23 2.619 2.301 3.084 2.374 3.549.038.242.075.484.416 1.028.797 1.274.996 3.98.996 5.174.266 1.526-.159 5.652-3.985 9.95-3.826 4.299-9.697 5.506-12.155 5.572L30.19 64.468c-8.103.331-25.107-1.752-28.295-12.737-3.22-11.096-.065-17.254 1.475-20.259.366-.713.64-1.249.717-1.63.319-1.593 4.384-5.042 6.376-6.568 5.898-3.502 16.008-4.51 20.325-4.577l17.933-.796 12.155-1.194 1.196-6.17-.797-.994v-.398l.199-2.19V5.763l.797-.796c.266-.265 1.275-.637 3.188 0 1.913.637 2.126 2.123 1.993 2.786.319.637-.266.796-.598.796.319.637-.399 1.46-.797 1.79-.2 0-.797.12-1.594.598s-.996 3.781-.996 5.373c10.361-.318 14.811-1.327 15.741-1.791 6.058-.318 13.018-3.715 15.742-5.373l8.966-6.17v-.994c0-.398.16-1.234.797-1.393.638-.16 1.063-.067 1.196 0 .956 0 1.86 1.724 2.192 2.587.996 1.592 3.228 7.442 4.184 18.109.982 10.951-1.665 18.68-2.643 21.534-.212.62-.346 1.01-.346 1.152 0 .69-1.196 3.022-1.775 4.15-.089.175-.164.32-.217.427-.29.58-.896.948-1.282 1.182-.144.088-.258.157-.312.211-.131.13-.691-.081-1.116-.242-.223-.085-.41-.156-.478-.156zM61.275 36.21l-.598-2.985h-5.978l6.376 2.985h.2zm-11.159 3.98c2.71-.159 4.317.995 4.782 1.592l-18.53 1.194c-.48-.796-1.263-1.658-1.595-1.99l15.343-.796zm.2 6.567v-2.388H54.3c.133.929-.478 2.707-3.985 2.388zm-5.38 0v-1.99l4.184-.398v2.388h-4.185zm-3.787.2v-.797l1.993-1.194.598.2v1.79h-2.59zm15.543 3.581c.956 3.503-5.58 4.379-8.967 4.379l1.793-3.384c.478-.796 1.395-.995 1.794-.995h5.38zM35.57 54.12l.399.597h.996c.2-.53.877-1.592 1.992-1.592l-.797-3.98h-1.793v3.184l-.797 1.791zm-6.177.398c0-.796-1.063-1.393-1.594-1.592l.398-3.582h2.392v3.582l.199 1.592h-1.395zm-6.974-.796l1.992.597v-3.184l-.398-1.99h-1.594v4.577zm-2.79-4.577v3.582c-2.232-.955-3.188-2.786-3.387-3.582h3.387zm-4.981 2.388v2.388l3.786 1.593.598-.597c-1.262-.664-3.906-2.27-4.384-3.384zm4.981-6.965v2.19h-1.992c-1.754-.956-.731-1.858 0-2.19h1.992zm2.79 2.19v-1.792c.398-.066 1.235.2 1.395 1.791h-1.395zm7.771-3.185v3.184h-1.793l.199-3.184h1.594z" fill="#000" stroke="#fff"/></svg>