<svg width="38" height="34" fill="none" xmlns="http://www.w3.org/2000/svg"><g clip-path="url(#a)"><path d="M33.895 8.342c.024.366.024.732.024 1.098 0 11.166-7.79 24.032-22.03 24.032-4.386 0-8.461-1.386-11.889-3.792.623.079 1.222.105 1.87.105 3.62 0 6.951-1.334 9.612-3.609-3.404-.078-6.256-2.51-7.24-5.858.48.079.96.131 1.463.131a7.55 7.55 0 002.038-.287c-3.548-.785-6.209-4.184-6.209-8.29v-.104a7.315 7.315 0 003.5 1.072c-2.086-1.517-3.452-4.106-3.452-7.035 0-1.569.383-3.007 1.055-4.262 3.811 5.125 9.54 8.472 15.964 8.839a10.372 10.372 0 01-.192-1.936C18.41 3.792 21.861 0 26.152 0c2.23 0 4.243 1.02 5.657 2.667a14.494 14.494 0 004.914-2.04c-.575 1.962-1.798 3.61-3.404 4.655 1.558-.183 3.069-.654 4.459-1.307a17.55 17.55 0 01-3.883 4.367z" fill="#000"/></g><defs><clipPath id="a"><path fill="#fff" d="M0 0H37.778V34H0z"/></clipPath></defs></svg>