<svg width="43" height="31" fill="none" xmlns="http://www.w3.org/2000/svg"><g clip-path="url(#a)"><path d="M42.102 4.85C41.607 2.941 40.15 1.438 38.3.927 34.947 0 21.5 0 21.5 0S8.054 0 4.7.927C2.85 1.437 1.393 2.941.9 4.85 0 8.311 0 15.531 0 15.531s0 7.22.899 10.681a5.39 5.39 0 003.801 3.86C8.054 31 21.5 31 21.5 31s13.447 0 16.8-.927a5.39 5.39 0 003.802-3.86C43 22.751 43 15.53 43 15.53s0-7.22-.898-10.68zm-25 17.237V8.976l11.239 6.555-11.239 6.556z" fill="#000"/></g><defs><clipPath id="a"><path fill="#fff" d="M0 0H43V31H0z"/></clipPath></defs></svg>